<?xml version="1.0" encoding="UTF-8"?>
<svg id="Calque_1" data-name="Calque 1" xmlns="http://www.w3.org/2000/svg" version="1.1" viewBox="0 0 64 64">
  <defs>
    <style>
      .cls-1 {
        fill: #fcfcfc;
        stroke-width: 0px;
      }
    </style>
  </defs>
  <g id="SVGRepo_iconCarrier" data-name="SVGRepo iconCarrier">
    <path class="cls-1" d="M64,32c0-6.1-1.9-12-5.2-17.1s-8.1-9.1-13.6-11.6C39.6.8,33.4,0,27.4.8c-6,.9-11.7,3.5-16.3,7.5-4.6,4-8,9.2-9.7,15-1.7,5.8-1.8,12.1-.1,17.9s5,11.1,9.5,15.2c4.6,4,10.2,6.7,16.2,7.6v-22.7h-8v-9.3h8v-7.1c-.2-1.6,0-3.3.5-4.9.5-1.6,1.4-3,2.5-4.2,1.1-1.2,2.5-2.1,4.1-2.7,1.5-.6,3.2-.9,4.8-.7,2.4,0,4.8.2,7.2.6v8h-4c-.7,0-1.4,0-2,.2-.7.2-1.3.6-1.8,1.1-.5.5-.9,1.1-1.1,1.7-.2.7-.3,1.3-.3,2v6h8.9l-1.4,9.3h-7.4v22.4c7.6-1.2,14.4-5.1,19.4-10.9,4.9-5.8,7.6-13.2,7.6-20.9Z"/>
  </g>
</svg>