<?xml version="1.0" encoding="UTF-8"?>
<svg id="Calque_1" data-name="Calque 1" xmlns="http://www.w3.org/2000/svg" version="1.1" viewBox="0 0 2500 2500">
  <defs>
    <style>
      .cls-1 {
        fill: #fff;
        fill-rule: evenodd;
        stroke-width: 0px;
      }
    </style>
  </defs>
  <path class="cls-1" d="M835.5,1067.6h68.5s-57.5,68.5-64.1,75.2c4.4,11.1,24.3,53.1,31,68.5,8.8,15.5,33.2,75.2,55.3,90.7h-64.2s-22.1-4.4-35.4-31c-13.3-28.7-33.2-64.1-35.4-75.2-4.4,4.4-17.7,19.9-17.7,22.1v59.7s2.2,13.2,15.5,24.3h-92.9s13.3-11.1,13.3-26.5v-176.9s-2.2-26.5-13.3-31h90.6s-13.3,4.4-13.3,26.5v73l2.2-2.2c2.2-2.2,53.1-61.9,57.5-70.8,6.8-10.9,9-19.8,2.4-26.4Z"/>
  <path class="cls-1" d="M866.4,1140.6h81.8s33.2,77.4,37.6,88.4c8.8-19.9,13.3-28.7,15.5-35.4,4.4-6.6,11.1-19.9,13.3-22.1,0-4.4,2.2-8.8,2.2-15.5s-4.4-15.5-6.6-15.5h57.5s-77.4,161.4-79.6,161.4c0,2.2-13.3,8.8-26.5-2.2-13.3-11.1-17.7-17.7-22.1-26.5-6.6-11.1-48.6-99.5-50.8-103.9-2.4-6.6-13.4-22.1-22.3-28.7ZM1153.8,1193.6h13.3c-2.2,2.2,0-31-26.5-31s-26.5,31-26.5,31h44.2v30.9h-44.3c0,22.1,15.5,46.4,48.6,46.4s59.7-24.3,59.7-24.3c0,0-11.1,39.8-13.3,42,0,4.4-33.2,17.7-68.5,15.5-95.1-4.4-88.4-81.8-88.4-81.8,0,0-2.2-88.4,88.4-88.4s81.8,90.6,81.8,90.6h-68.5v-30.9h0ZM1653.5,1193.6h13.2c-2.2,2.2,0-31-26.5-31s-26.5,31-26.5,31h44.2v30.9h-44.2c0,22.1,15.5,46.4,48.6,46.4s59.7-24.3,59.7-24.3c0,0-11.1,39.8-11.1,42-2.2,4.4-35.4,17.7-68.5,15.5-97.3-4.4-90.6-81.8-90.6-81.8,0,0-2.2-88.4,88.4-88.4s81.8,90.6,81.8,90.6h-68.5v-30.9h0ZM1315.2,1302h-86.2s11.1-8.9,11.1-19.9v-117.2s-2.2-15.5-13.3-22.1h73v17.7s15.5-26.5,48.6-24.3v46.4s-19.9-6.6-35.4,4.4c-11.1,6.6-11.1,19.9-11.1,24.3v70.8c.1,0,.1,11,13.3,19.9ZM1352.8,1302h88.4s-13.3-11.1-13.3-22.1v-75.2s-2.2-28.7,22.1-28.7,22.1,26.5,22.1,26.5v77.4s0,13.2-13.3,22.1h88.4s-13.2-8.9-13.2-22.1v-84s4.4-59.7-61.9-59.7-44.2,13.3-48.6,22.1v-17.7h-70.8s13.3,11.1,13.3,24.3v115c0-.1-2.2,13.2-13.2,22.1h0ZM1803.8,1204.7v75.2c0,11.1,13.2,22.1,13.2,22.1h-88.4c11.1-8.9,13.3-22.1,13.3-22.1v-190.1s-4.4-19.9-15.5-24.3h77.4v139.2h0ZM1841.4,1184.8l15.5-42s26.5-8.8,53.1-6.6c28.8,0,48.6,8.8,57.5,19.9,8.8,13.3,11.1,28.7,11.1,39.8v57.5s-2.2,19.9,22.1,22.1c-8.8,17.7-13.2,26.5-13.2,26.5,0,0-37.6,6.6-53.1-11.1-17.7-15.5-17.7-31-17.7-66.3-8.8,2.2-37.6,8.8-35.4,31,2.2,19.9,26.5,19.9,31,19.9-8.8,22.1-11.1,24.3-11.1,24.3,0,0-73,24.3-81.8-42-6.6-46.4,70.7-55.3,64.1-55.3,13.2-2.2,33.2-8.8,33.2-17.7-2.3-8.9-13.4-31-75.3,0h0Z"/>
  <path class="cls-1" d="M2000.6,1302h86.2s-13.3-11.1-13.3-22.1v-75.2s-2.2-28.7,22.1-28.7,22.1,26.5,22.1,26.5v75.2s0,15.4-13.3,24.3h88.4s-13.2-11.1-13.2-22.1v-84s4.4-59.7-61.9-59.7-44.2,13.3-46.4,22.1v-17.7h-70.8s11.1,11.1,11.1,24.3v115c0-.1,0,13.2-11,22.1h0ZM2305.7,1277.7l-13.2,26.5s-48.6,11.1-79.6-31-11.1-101.7,11.1-117.2c22.1-15.5,33.2-19.9,53.1-19.9s35.4,8.8,37.6,11.1v-55.3s-4.4-22.1-15.5-26.5h75.2v212.3s2.2,17.7,15.5,24.3h-75.2v-104s0-26.5-22.1-26.5-31,28.7-31,48.6c-.1,17.7,4.3,50.9,44.1,57.6h0Z"/>
  <path class="cls-1" d="M344.6,1067.6s48.6-55.3,68.5-66.3c15.5-8.8,28.7-6.6,39.8-8.8h168l-73,75.2h-203.3Z"/>
  <path class="cls-1" d="M545.8,1275.4s55.3-55.3,68.5-75.2c8.8-13.3,6.6-28.7,6.6-37.6v-170.2l-75.2,73v210h.1ZM397.7,1094.1h103.9l-207.8,207.9H110.3s55.3-61.9,73-68.5c17.7-4.4,26.5-4.4,79.6-4.4,30.9-33.3,134.8-135,134.8-135h0ZM521.5,1215.7v-106.1l-207.8,207.8v190.1s59.7-57.5,66.3-75.2c6.6-17.7,6.6-28.8,4.4-79.6,33.2-30.8,137.1-137,137.1-137Z"/>
</svg>