<?xml version="1.0" encoding="UTF-8"?>
<svg id="Layer_1" data-name="Layer 1" xmlns="http://www.w3.org/2000/svg" version="1.1" viewBox="0 0 285 167">
  <defs>
    <style>
      .cls-1 {
        fill: #fff;
        stroke-width: 0px;
      }
    </style>
  </defs>
  <path class="cls-1" d="M211.9,49.8c-.5-.9-1.4-1.5-2.5-1.5h-35.2l-3.9,5.4h0c0,0,33.7,0,33.7,0l-37.4,50.3-19-25.6,41.9-56.9c.6-.8.7-2,.2-2.9s-1.4-1.5-2.4-1.5h-86.6c-1,0-2,.6-2.5,1.5s-.4,2,.2,2.9l19.7,26.5h-39.5c-1,0-2,.6-2.5,1.5s-.4,2,.2,2.9l43.2,58c.5.7,1.3,1.1,2.2,1.1h0c.9,0,1.7-.4,2.2-1.1l20.1-27.3,20.2,27.2c.5.7,1.3,1.1,2.2,1.1s1.7-.4,2.2-1.1l42.9-57.7c.6-.9.7-2,.2-2.9ZM121.7,104.2l-37.7-50.6h38.2l18.5,24.9-18.9,25.7ZM144.1,73.9l-15.1-20.1h26l4-5.7h-34.1l-18.8-25.4h75.7l-37.7,51.2Z"/>
  <g>
    <path class="cls-1" d="M31.5,141.8v-9.9l-5.2,9.9h-2.9l-5.2-9.9v9.9h-3.4v-13h5.8l4.4,8.6,4.3-8.6h5.7v13h-3.4Z"/>
    <path class="cls-1" d="M41.1,141.8h-4l6.6-13h4.9l6.5,13h-4l-1.1-2.4h-7.7l-1.2,2.4ZM43.6,136.8h5.1l-2.5-5.1-2.5,5.1Z"/>
    <path class="cls-1" d="M60.7,137.9c0,.5.2.9.5,1,.4.1.8.2,1.4.2h4.1c.7,0,1.1-.2,1.3-.4.2-.2.3-.5.3-.9s-.1-.6-.3-.8c-.2-.2-.7-.3-1.3-.3h-.6l-6-.2c-1.1,0-1.9-.3-2.4-.9-.5-.6-.7-1.6-.7-2.9s.1-1.9.4-2.5c.3-.6.8-1,1.6-1.2.4-.1.9-.2,1.4-.3.5,0,1-.1,1.6-.1h2.5c0,0,2.5,0,2.5,0,.5,0,1,0,1.4,0s.8.1,1.1.2c.6.2,1,.5,1.3.9.3.5.4.9.5,1.3s.1.9.1,1.6h-3.6c0-.4-.1-.8-.4-.9-.2-.2-.6-.3-1-.3h-1.8s-2.8,0-2.8,0c-.3,0-.7,0-.9.2-.3.1-.4.4-.4.8s.2.8.5,1c.1,0,.3.1.5.2.2,0,.5,0,.7,0h5.2c1.6,0,2.7.3,3.3.8.7.5,1.1,1.6,1.1,3.2s-.3,2.6-.9,3.2c-.6.6-1.7.9-3.1.9h-4.6c0,.1-2.4,0-2.4,0-1.3,0-2.2-.2-2.8-.7s-.9-1.4-.9-2.7v-.8h3.5v.2Z"/>
    <path class="cls-1" d="M78.2,137.9c0,.5.2.9.5,1,.4.1.8.2,1.4.2h4.2c.7,0,1.1-.2,1.3-.4.2-.2.3-.5.3-.9s-.1-.6-.3-.8c-.2-.2-.7-.3-1.3-.3h-.6l-6-.2c-1.1,0-1.9-.3-2.4-.9-.4-.6-.7-1.6-.7-2.9s.1-1.9.4-2.5c.3-.6.8-1,1.6-1.2.4-.1.9-.2,1.4-.3.5,0,1.1-.1,1.6-.1h2.5c0,0,2.5,0,2.5,0,.5,0,1,0,1.4,0s.8.1,1.1.2c.6.2,1,.5,1.3.9s.4.9.5,1.3.1.9.1,1.6h-3.6c0-.4-.1-.8-.4-.9-.2-.2-.6-.3-1-.3h-1.8s-2.8,0-2.8,0c-.3,0-.7,0-.9.2s-.4.4-.4.8.2.8.4,1c.1,0,.3.1.5.2.2,0,.4,0,.7,0h5.2c1.6,0,2.7.3,3.3.8.7.5,1.1,1.6,1.1,3.2s-.3,2.6-.9,3.2c-.6.6-1.7.9-3.1.9h-4.6c0,.1-2.4,0-2.4,0-1.3,0-2.2-.2-2.8-.7s-.9-1.4-.9-2.7v-.8h3.6v.2Z"/>
    <path class="cls-1" d="M105.6,128.8v3h-9.7v2.2h9v2.6h-9v2.3h9.7v2.9h-13.3v-13h13.3Z"/>
    <path class="cls-1" d="M124.2,128.8l-6.7,8.5v4.5h-3.6v-4.5l-6.8-8.5h4.6l4,5.4,4-5.4h4.5Z"/>
    <path class="cls-1" d="M145.5,128.8v3h-9.2v2.2h9.2v2.6h-9.2v5.2h-3.7v-13h12.9Z"/>
    <path class="cls-1" d="M161.2,128.8v3h-9.9v2.2h9.2v2.6h-9.2v2.3h9.9v2.9h-13.5v-13h13.5Z"/>
    <path class="cls-1" d="M175.3,128.8c1.5,0,2.5.3,3.1.9.3.3.6.7.7,1.2.2.5.2,1.2.2,2v.2c0,.6,0,1,0,1.4s-.2.7-.4,1c-.2.3-.4.5-.6.7-.2.1-.7.3-1.5.6.8.1,1.4.4,1.9.7.4.3.6.9.6,1.8v2.5h-3.8v-1.2c0-.6,0-1.1-.2-1.5-.1-.4-.6-.6-1.4-.6h-6.2v3.3h-3.7v-13h11.3ZM173.7,135.3c.8,0,1.4-.1,1.6-.3.2-.2.3-.7.3-1.5s0-.8-.1-1-.2-.3-.5-.4h-.6c0-.1-.6-.1-.6-.1h-6.1v3.4h6.1Z"/>
    <path class="cls-1" d="M198,134.5v2.7c0,1.6-.2,2.8-.8,3.6-.5.8-1.5,1.2-3,1.2h-6c-1.4,0-2.5-.1-3.3-.3-.8-.2-1.5-.6-2-1.3s-.7-1.8-.7-3.2v-1.6c0-2.5.2-4.3.8-5.3s1.9-1.5,4.1-1.5h2.8c0-.1,1-.1,1-.1h2.5c1.6.1,2.8.4,3.5,1,.7.6,1.1,1.7,1.1,3.4v.2h-3.6c0-.3,0-.6-.1-.8,0-.2-.2-.4-.4-.4-.2,0-.4-.1-.7-.2h-5.2c-.9,0-1.4.1-1.7.6-.2.5-.4,1.2-.4,2.3v1.2c0,.9.1,1.6.3,2s.6.7,1,.8h1c0,.1.9.1.9.1h3.3c.6,0,1.1-.1,1.5-.3s.5-.6.5-1.3v-.4h-4.7v-2.4h8.3Z"/>
    <path class="cls-1" d="M216.5,136.2v.8c0,2-.5,3.4-1.5,4s-2.5,1-4.6,1h-3c-.8,0-1.6,0-2.1,0s-1.1-.1-1.6-.2c-.8-.2-1.5-.6-2.1-1.4s-.8-1.9-.8-3.5v-8h3.7v6.8c0,1.3.1,2.1.4,2.5.3.4,1,.6,2.2.6h3.2c1,0,1.6-.2,1.9-.5.3-.3.4-1,.4-2.1v-7.4h3.7v7.4h0Z"/>
    <path class="cls-1" d="M223.1,137.9c0,.5.2.9.5,1,.4.1.8.2,1.4.2h4.2c.7,0,1.1-.2,1.3-.4.2-.2.3-.5.3-.9s-.1-.6-.4-.8-.7-.3-1.4-.3h-.6l-6.1-.2c-1.1,0-1.9-.3-2.4-.9-.5-.6-.7-1.6-.7-2.9s.1-1.9.4-2.5c.3-.6.8-1,1.6-1.2.4-.1.9-.2,1.4-.3.5,0,1.1-.1,1.7-.1h2.6c0,0,2.6,0,2.6,0,.5,0,1,0,1.4,0s.8.1,1.1.2c.6.2,1.1.5,1.3.9s.4.9.5,1.3.1.9.1,1.6h-3.6c0-.4-.1-.8-.4-.9s-.6-.3-1.1-.3h-1.8s-2.8,0-2.8,0c-.4,0-.7,0-.9.2-.3.1-.4.4-.4.8s.1.8.4,1c.1,0,.3.1.5.2.2,0,.5,0,.7,0h5.3c1.6,0,2.7.3,3.4.8.7.5,1.1,1.6,1.1,3.2s-.3,2.6-1,3.2-1.7.9-3.2.9h-4.7c0,.1-2.5,0-2.5,0-1.3,0-2.3-.2-2.9-.7s-.9-1.4-.9-2.7v-.8h3.6v.2Z"/>
    <path class="cls-1" d="M245.4,128.7h2.9c2.2,0,3.6.4,4.4,1.2.8.8,1.2,2.3,1.2,4.6v.6c0,2.7-.3,4.5-.9,5.4-.6.9-2.2,1.4-4.8,1.4h-2.8c0,0-1.2,0-1.2,0h-2.5c-1.4,0-2.5-.4-3.2-1.1s-1.2-1.8-1.2-3.3v-2.4c0-2.6.3-4.4.9-5.2.6-.8,2.1-1.2,4.5-1.2h2.6ZM243.4,138.8h3.9c1,0,1.8-.1,2.2-.4.5-.2.7-.8.7-1.8v-1.8c0-.6,0-1.1,0-1.5s-.2-.8-.4-.9c-.2-.2-.5-.3-.9-.4-.4,0-.7-.1-.9-.1s-.3,0-.4,0h-3.7c-.9,0-1.5,0-1.9.3-.4.2-.7.6-.8,1.2v1.5c0,0,0,.4,0,.4v.5c0,1.2.1,2,.4,2.4.3.4.9.6,1.9.6Z"/>
    <path class="cls-1" d="M267.6,141.8l-7.3-9.8v9.8h-3.5v-13h5.9l7.3,9.8v-9.8h3.5v13h-5.9Z"/>
  </g>
</svg>