<?xml version="1.0" encoding="UTF-8"?>
<svg id="Calque_1" data-name="Calque 1" xmlns="http://www.w3.org/2000/svg" version="1.1" viewBox="0 0 2500 1094">
  <defs>
    <style>
      .cls-1 {
        fill: #fff;
        fill-rule: evenodd;
        isolation: isolate;
        opacity: .8;
        stroke-width: 0px;
      }
    </style>
  </defs>
  <path class="cls-1" d="M424,799.8c-49.5,8.2-96.9,41.2-116.5,81.2-9.3,18.9-10.9,26.9-10.9,55.4s6.7,58.5,25.8,82.7c48.9,61.7,172.5,74.8,245.1,26,67.3-45.2,79.6-143.6,24.7-197.3l-15.6-15.2-27.3,29.3c-22.6,24.2-31.3,35.2-31.3,35.2,0,0,9.3,23.6,10.5,35.7,6.6,67-64.4,107.1-112.5,63.6-23.7-21.4-30.3-58.5-16-89.5,4-8.6,25.9-36.2,48.8-61.3,37.5-41.2,40.6-45.9,32.8-47.9-11.4-3.1-31-2.4-57.7,2h0ZM1709.5,797.9c-67.3,9.8-107.6,32.9-130.2,74.7-36.8,67.9-12.1,149.1,55.5,183.3,75.3,38.1,178.3,22.9,229.4-33.9,20.9-23.2,29.5-47.3,29.5-82.3v-26.7h-168.5v62.7c12.8,0,65-.6,64.7,0-16.3,37.2-55.5,45.4-85.6,35.5-39.9-13.1-56-66.4-33.6-110.5,17.8-35.1,73-45.3,102.9-19l12.5,11c11.8-3.3,88-22.7,91.9-24.7-21.6-31.4-33.6-37.9-58.1-49.6-17.6-7.8-36.1-13.6-55-17.2-30.1-5.4-37.2-5.8-55.4-3.1h0ZM.7,1069.7h94.9v-80.3h58c29.1-1.2,45.3-2.2,60.7-9.2,56.9-26,67.3-58,56.9-108-5.8-27.9-20.3-45.2-48.1-57.5-19.4-8.6-26.3-9.2-121.5-10.7H.7v265.8ZM631.7,865.9h61v203.8h95.8v-203.8h117.6v203.8h94.1v-203.8h61.9v-60.7h-430.3v60.7ZM1094.2,805.1v264.6h97v-264.6s-65-1.2-97,0ZM1247.1,1069.7h95v-145l85.4,145h97.9v-264.6h-96v143.1l-89.1-143.1h-93.2v264.6ZM1932.9,805.1v264.6h237.1v-60.7h-141.1v-39.2h141.1v-62.7h-141.1v-39.2h141.1v-62.7c-79.1,0-158.1-.8-237.1,0ZM2223,1069.7h94.1v-78.8h31.4l47.5,78.9h103.4l-62.7-90.1s8.7-3.2,19.5-9.5c26.2-15.4,38.9-40.4,39.3-72.8.5-41-20.3-77.8-60.3-86.7-33.8-7.5-113.2-5.4-113.2-5.4h-99v264.5ZM496.7,835.1c-14.3,15.4-29.6,32.7-29.6,32.7,0,0,12.3-.5,19.6,2,5.8,2,13.7,7.8,13.7,7.8,0,0,1.1-1.8,23.7-28.2,12.8-15,27.2-30.6,27.2-30.6l-27.4-13.7s-12.9,14.6-27.2,30h0ZM95.6,937.6h30c43.7-1.3,53.5-14.9,53.5-35.4s-18.4-36.3-55.2-36.3h-28.2v71.7ZM2317,939.2h27.1c28.9-2.4,57.1-8.7,57.1-40s-32.3-32-50.6-32.8h-33.6v72.8ZM1266.7,484.9c0,113.7-2,127.4,12,146.2,10.8,18.9,29.2,38,60.5,44.3,9.6,2.6,42.1,6.4,84.3,5.5,74.6-1.7,95.1-9.1,123.9-31.1,33.8-25.8,50.8-101.4,42.2-187-4.7-46.2-12.7-66.5-33.2-83.8-24.9-21-21.1-21.4-163.8-21.4h-125.8v127.4ZM1352.9,614.2c-32.5-16.1-33.2-31.5-33.3-131.3v-73.8h83.7c77.2,1.1,86.5,2,99,9.2,20.4,11.8,28.4,31.6,30.5,76,3.3,67.3-9.2,100.5-44.2,117.8-17.8,8.8-24.1,9.7-68.7,9.5-40.5-.1-54.3-1.2-66.9-7.5h0ZM1266.7,196.9c0-113.7-2-127.4,12-146.2,10.8-18.9,29.2-38,60.5-44.3C1348.9,3.8,1381.4,0,1423.5,1c74.6,1.7,95.1,9.1,123.9,31.1,33.8,25.8,50.9,101.4,42.2,187-4.7,46.2-12.7,66.5-33.2,83.8-24.9,21-21.2,21.5-163.9,21.5h-125.8v-127.4ZM1353,67.6c-32.5,16.1-33.2,31.4-33.3,131.3v73.8h83.7c77.2-1.2,86.6-2,99-9.2,20.4-11.8,28.3-31.6,30.5-76,3.2-67.4-9.2-100.5-44.2-117.8-17.8-8.8-24.1-9.7-68.7-9.5-40.5.1-54.3,1.2-66.9,7.4h0ZM1235.1,196.9c0-113.7,2-127.4-12-146.2-10.8-18.9-29.2-38-60.5-44.3C1152.9,3.8,1120.4,0,1078.3,1c-74.6,1.7-95.1,9.1-123.9,31.1-33.8,25.8-50.9,101.4-42.2,187,4.7,46.2,12.7,66.5,33.2,83.8,24.9,21,21.2,21.5,163.9,21.5h125.7v-127.4ZM1148.8,67.6c32.5,16.1,33.2,31.4,33.3,131.3v73.8h-83.7c-77.2-1.2-86.5-2-99-9.2-20.4-11.8-28.3-31.6-30.5-76-3.2-67.4,9.2-100.5,44.2-117.8,17.8-8.8,24.1-9.7,68.7-9.5,40.5.1,54.3,1.2,66.9,7.4h0ZM1235.1,484.9c0,113.7,2,127.4-12,146.2-10.8,18.9-29.2,38-60.5,44.3-9.6,2.6-42.2,6.4-84.3,5.5-74.6-1.7-95.1-9.1-123.9-31.1-33.8-25.8-50.9-101.4-42.2-187,4.7-46.2,12.7-66.5,33.2-83.8,24.9-21,21.2-21.4,163.9-21.4h125.7v127.4ZM1148.8,614.2c32.5-16.1,33.2-31.5,33.3-131.3v-73.8h-83.7c-77.2,1.1-86.5,2-99,9.2-20.4,11.8-28.3,31.6-30.5,76-3.2,67.3,9.2,100.5,44.2,117.8,17.8,8.8,24.1,9.7,68.7,9.5,40.5-.1,54.3-1.2,66.9-7.5h0Z"/>
</svg>