<?xml version="1.0" encoding="UTF-8"?>
<svg xmlns="http://www.w3.org/2000/svg" version="1.1" viewBox="0 0 2500 1154">
  <defs>
    <style>
      .cls-1 {
        fill: red;
      }

      .cls-1, .cls-2 {
        stroke-width: 0px;
      }

      .cls-2 {
        fill: #fff;
      }
    </style>
  </defs>
  <g id="Calque_1" data-name="Calque 1" image-rendering="optimizeQuality" shape-rendering="geometricPrecision" text-rendering="geometricPrecision">
    <g>
      <path class="cls-1" d="M1251.1,537.3l-143.5-190.6h246.5l38.2-54h-323.1l-178.8-240.5h718.2l-357.5,485.1ZM1039,825.1l-358-480.2h361.8l175.8,236.4-179.7,243.8ZM1894.1,308.4c-4.4-8.8-13.4-14.4-23.3-14.4h-334l-37.2,51.3v.8h319.4l-354.9,477.6-180.4-242.7L1681.2,41.6c5.8-7.9,6.7-18.5,2.3-27.2S1670.1,0,1660.2,0h-821.7c-9.9,0-18.9,5.5-23.3,14.4-4.4,8.8-3.5,19.4,2.4,27.3l186.7,251h-375c-14.4,0-26.1,11.6-26.1,26,0,5.7,1.8,11.2,5.2,15.7l410,550.1c4.9,6.6,12.7,10.5,20.9,10.5h0c8.2,0,16-4,20.9-10.6l191.1-259.3,191.8,258.1c4.9,6.6,12.7,10.5,20.9,10.5s16-3.9,20.9-10.5l406.8-547.4c5.9-7.9,6.8-18.5,2.4-27.3h0Z"/>
      <path class="cls-2" d="M162.1,1152.5v-95.8l-50.6,95.8h-28.1l-50.2-95.8v95.8H.3v-125.8h55.7l42.2,83.3,41.7-83.3h55.3v125.8h-33.1ZM278.6,1103.6h49.3l-24.6-49.8-24.7,49.8ZM255,1152.5h-39l64.1-125.8h47.2l62.7,125.8h-38.6l-10.9-22.8h-74.2l-11.4,22.8ZM443.7,1114.6c0,5,1.5,8.3,4.6,9.8,3.4,1.3,7.9,1.9,13.3,1.9h16.6l23.5-.7c6.4,0,10.7-.9,12.6-2.6s3-4.5,3-8.2-1.1-6-3.3-8c-2.3-2-6.5-3-12.8-3h-5.7l-57.6-1.5c-10.7,0-18.3-3-22.9-8.9-4.4-6.2-6.5-15.4-6.5-27.5s1.4-18.3,4.1-24,7.9-9.7,15.3-12c4-1.2,8.4-2.1,13.4-2.7,4.9-.7,10.1-1,15.7-1l24.3-.6h24.4c5.1,0,9.5.2,13.2.6,3.7.4,7.2,1.1,10.4,2.1,5.9,1.5,10,4.6,12.5,9.1s4.1,8.7,4.8,12.5,1.1,8.9,1.1,15.3h-34.3c0-4.3-1.2-7.3-3.5-9.1s-5.7-2.7-9.9-2.7l-16.9-.2-26.7,1c-3.3,0-6.3.7-8.9,2.2s-3.9,4-3.9,7.4,1.4,7.8,4.3,9.5c1.4.6,3.1,1.2,5.1,1.5s4.3.6,7,.6h50.1c14.9,0,25.7,2.6,32.2,7.8,6.8,4.9,10.1,15.1,10.1,30.5s-3,25-9,30.6-16,8.3-29.9,8.3l-44.8,1.3-23.4-.6c-12.5,0-21.7-2.2-27.5-6.5s-8.7-13.2-8.7-26.5v-7.6h34.3l.2,2.1h.2ZM613,1114.6c0,5,1.5,8.3,4.6,9.8,3.4,1.3,7.9,1.9,13.3,1.9h16.6l23.5-.7c6.4,0,10.7-.9,12.6-2.6s3-4.5,3-8.2-1.1-6-3.3-8c-2.3-2-6.5-3-12.8-3h-5.7l-57.6-1.5c-10.7,0-18.3-3-22.9-8.9-4.4-6.2-6.5-15.4-6.5-27.5s1.4-18.3,4.1-24,7.9-9.7,15.3-12c4-1.2,8.4-2.1,13.4-2.7,4.9-.7,10.1-1,15.7-1l24.3-.6h24.4c5.1,0,9.5.2,13.2.6,3.7.4,7.2,1.1,10.4,2.1,5.9,1.5,10,4.6,12.5,9.1s4.1,8.7,4.8,12.5,1.1,8.9,1.1,15.3h-34.3c0-4.3-1.2-7.3-3.5-9.1-2.3-1.8-5.7-2.7-9.9-2.7l-16.9-.2-26.7,1c-3.3,0-6.3.7-8.9,2.2s-3.9,4-3.9,7.4,1.4,7.8,4.3,9.5c1.4.6,3.1,1.2,5.1,1.5s4.3.6,7,.6h50.1c14.9,0,25.7,2.6,32.2,7.8,6.8,4.9,10.1,15.1,10.1,30.5s-3,25-9,30.6-16,8.3-29.9,8.3l-44.8,1.3-23.4-.6c-12.5,0-21.7-2.2-27.5-6.5s-8.7-13.2-8.7-26.5v-7.6h34.3l.2,2.1h.2ZM877.7,1026.7v28.7h-93.2v21.5h87v24.9h-87v22.2h93.2v28.5h-128.2v-125.7h128.2ZM1057.4,1026.7l-64.6,82v43.7h-35.1v-43.7l-65.6-82h44.1l38.9,51.9,38.6-51.9h43.8ZM1262.8,1026.7v28.7h-88.8v21.5h88.8v24.9h-88.8v50.7h-35.7v-125.8h124.5ZM1415.2,1026.7v28.7h-95.1v21.5h88.8v24.9h-88.8v22.3h95.1v28.5h-130.8v-125.8h130.8ZM1535.8,1089.9c8.1,0,13.1-1.1,15.1-3.2s3-7,3-14.5-.4-7.4-1.2-9.2c-.7-1.8-2.4-3.3-4.8-4.3l-5.8-1.3h-64.8v32.6h58.6,0ZM1550.8,1026.7c14.2,0,24.2,3,30,8.9,3.1,2.9,5.3,6.9,6.9,11.9,1.5,5,2.3,11.4,2.3,19.1v2.1c0,5.3-.3,9.7-.8,13.3s-1.7,6.8-3.5,9.7c-1.7,2.9-3.8,5.2-6.2,6.8-1.6,1-6.5,3.1-14.8,6.1,8,1.1,13.9,3.4,18,6.7,4,3.3,6,9.1,6,17.4v24h-36.2v-12c0-6-.5-10.8-1.5-14.5s-5.7-5.5-14-5.5h-59.6v32.1h-35.7v-125.8h109.2ZM1770,1081.6l.2,26.5c0,15.6-2.5,27.2-7.5,34.6-5,7.4-14.7,11.1-29.1,11.1h-58.4c-13.4,0-24-1-31.8-2.8-7.9-1.9-14.2-6.2-18.9-13-4.8-6.7-7.1-17-7.1-30.7l-.4-15.9c0-24.6,2.8-41.6,8.4-51s18.9-14.2,39.7-14.2l26.7-1h9.9l23.9,1c15.5,0,26.7,2.9,33.7,8.5s10.5,16.6,10.5,32.8v2.2h-34.8c0-3-.4-5.4-1.2-7.5s-2.1-3.4-4.1-4.1-4.3-1.3-7.1-1.7h-8.8l-41.4-.7c-8.4,0-13.8,2.3-16.1,6.8-2.2,4.5-3.3,12-3.3,22.4v11.8c0,8.8,1.1,15.2,3.2,19.4s5.3,6.7,9.7,7.4l9.5,1h40.3c6.1,0,10.8-1.1,14.3-3.3,3.4-2.2,5.1-6.3,5.1-12.3v-3.6h-45.4v-23.6h80.4ZM1948.7,1098.6v7.3c0,19.5-4.9,32.4-14.5,38.7s-24.3,9.5-44,9.5h-29.2c-8.1,0-14.9-.2-20.6-.6s-10.6-1.1-14.9-2.1c-8.1-1.6-14.7-6.1-19.8-13.4s-7.7-18.6-7.7-33.8v-77.3h35.7v66.1c0,12.4,1.4,20.5,4.2,24.4,2.9,3.9,9.9,5.9,21.3,5.9h30.8c9.7,0,15.9-1.6,18.7-4.9s4.1-9.9,4.1-19.9v-71.6h35.9v71.7h0ZM2012.9,1114.6c0,5,1.6,8.3,4.8,9.8,3.5,1.3,8.1,1.9,13.6,1.9h16.9l24-.7c6.6,0,10.9-.9,12.8-2.6,2-1.7,3-4.5,3-8.2s-1.2-6.1-3.4-8c-2.3-2-6.7-3-13.1-3h-5.8l-58.7-1.5c-10.9,0-18.7-3-23.4-8.9-4.5-6.2-6.7-15.4-6.7-27.5s1.4-18.3,4.2-24.1c2.8-5.7,8-9.7,15.6-12,4.1-1.1,8.7-2.1,13.6-2.7s10.4-1.1,16.1-1.1l24.8-.6h25c5.2,0,9.7.2,13.5.6,3.8.4,7.3,1.1,10.6,2.1,6,1.5,10.2,4.5,12.7,9.1,2.5,4.6,4.2,8.7,4.9,12.5s1.2,8.9,1.2,15.3h-35c0-4.3-1.2-7.3-3.6-9.1-2.4-1.8-5.8-2.7-10.1-2.7l-17.2-.2-27.2,1c-3.4,0-6.4.7-9.1,2.2-2.6,1.5-4,4-4,7.4s1.5,7.8,4.4,9.5c1.4.6,3.1,1.2,5.2,1.5s4.4.6,7.1.6h51.2c15.3,0,26.2,2.6,32.9,7.8,6.9,4.9,10.4,15.1,10.4,30.6s-3.1,25-9.2,30.6c-6.1,5.5-16.3,8.3-30.5,8.3l-45.7,1.3-23.9-.6c-12.8,0-22.1-2.2-28-6.5s-8.9-13.2-8.9-26.5v-7.6h35l.2,2.1h.2ZM2208.5,1123.1h37.4c10,0,17.2-1.2,21.7-3.4,4.4-2.3,6.7-8.1,6.7-17.5l.4-17.1c0-5.7-.3-10.6-1-14.8s-2-7.2-3.9-9.1-4.9-3.2-8.7-3.8-6.7-1-8.5-1.1-3.3-.1-4.3-.1h-35.5c-8.3,0-14.5.9-18.5,2.7-4.2,1.6-6.7,5.5-7.4,11.5l-.9,14.3v8.6c0,11.6,1.2,19.4,3.7,23.6s8.7,6.2,18.8,6.2v.2ZM2227.8,1025.3l28.5.6c20.9,0,35.2,3.7,42.8,11.1,7.7,7.4,11.5,22.2,11.5,44.4v6c0,26.1-3.1,43.6-9.1,52.4s-21.5,13.3-46.3,13.3l-26.9.7h-11.2l-24.3-.7c-13.5,0-23.9-3.3-31.4-9.9s-11.1-17.3-11.1-32.1l-.4-23.2c0-25.6,3-42.3,9-50.2s20.5-11.8,43.5-11.8l25.3-.6h0ZM2442.9,1152.5l-70.8-94.5v94.5h-33.6v-125.8h56.8l70.7,94.3v-94.3h33.6v125.8h-56.8Z"/>
    </g>
  </g>
</svg>